<svg width="1440" height="1016" viewBox="0 0 1440 1016" fill="none" xmlns="http://www.w3.org/2000/svg">
<g clip-path="url(#clip0_893_899)">
<path d="M8.04688 476.75V545H-5.96875V476.75H8.04688ZM35.4219 539.281L48.875 494.281H63.3594L42.9688 552.641C42.5312 553.922 41.9375 555.297 41.1875 556.766C40.4688 558.234 39.4844 559.625 38.2344 560.938C37.0156 562.281 35.4688 563.375 33.5938 564.219C31.75 565.062 29.4844 565.484 26.7969 565.484C25.5156 565.484 24.4688 565.406 23.6562 565.25C22.8438 565.094 21.875 564.875 20.75 564.594V554.703C21.0938 554.703 21.4531 554.703 21.8281 554.703C22.2031 554.734 22.5625 554.75 22.9062 554.75C24.6875 554.75 26.1406 554.547 27.2656 554.141C28.3906 553.734 29.2969 553.109 29.9844 552.266C30.6719 551.453 31.2188 550.391 31.625 549.078L35.4219 539.281ZM29.7969 494.281L40.8125 531.031L42.7344 545.328L33.5469 546.312L15.3125 494.281H29.7969ZM82.25 472.953V545H68.75V472.953H82.25ZM114.219 494.281L92.1875 519.406L80.375 531.359L75.4531 521.609L84.8281 509.703L98 494.281H114.219ZM100.203 545L85.2031 521.562L94.5312 513.406L115.766 545H100.203ZM142.438 545.938C138.5 545.938 134.969 545.312 131.844 544.062C128.719 542.781 126.062 541.016 123.875 538.766C121.719 536.516 120.062 533.906 118.906 530.938C117.75 527.938 117.172 524.75 117.172 521.375V519.5C117.172 515.656 117.719 512.141 118.812 508.953C119.906 505.766 121.469 503 123.5 500.656C125.562 498.312 128.062 496.516 131 495.266C133.938 493.984 137.25 493.344 140.938 493.344C144.531 493.344 147.719 493.938 150.5 495.125C153.281 496.312 155.609 498 157.484 500.188C159.391 502.375 160.828 505 161.797 508.062C162.766 511.094 163.25 514.469 163.25 518.188V523.812H122.938V514.812H149.984V513.781C149.984 511.906 149.641 510.234 148.953 508.766C148.297 507.266 147.297 506.078 145.953 505.203C144.609 504.328 142.891 503.891 140.797 503.891C139.016 503.891 137.484 504.281 136.203 505.062C134.922 505.844 133.875 506.938 133.062 508.344C132.281 509.75 131.688 511.406 131.281 513.312C130.906 515.188 130.719 517.25 130.719 519.5V521.375C130.719 523.406 131 525.281 131.562 527C132.156 528.719 132.984 530.203 134.047 531.453C135.141 532.703 136.453 533.672 137.984 534.359C139.547 535.047 141.312 535.391 143.281 535.391C145.719 535.391 147.984 534.922 150.078 533.984C152.203 533.016 154.031 531.562 155.562 529.625L162.125 536.75C161.062 538.281 159.609 539.75 157.766 541.156C155.953 542.562 153.766 543.719 151.203 544.625C148.641 545.5 145.719 545.938 142.438 545.938ZM198.359 530.984C198.359 530.016 198.078 529.141 197.516 528.359C196.953 527.578 195.906 526.859 194.375 526.203C192.875 525.516 190.703 524.891 187.859 524.328C185.297 523.766 182.906 523.062 180.688 522.219C178.5 521.344 176.594 520.297 174.969 519.078C173.375 517.859 172.125 516.422 171.219 514.766C170.312 513.078 169.859 511.156 169.859 509C169.859 506.875 170.312 504.875 171.219 503C172.156 501.125 173.484 499.469 175.203 498.031C176.953 496.562 179.078 495.422 181.578 494.609C184.109 493.766 186.953 493.344 190.109 493.344C194.516 493.344 198.297 494.047 201.453 495.453C204.641 496.859 207.078 498.797 208.766 501.266C210.484 503.703 211.344 506.484 211.344 509.609H197.844C197.844 508.297 197.562 507.125 197 506.094C196.469 505.031 195.625 504.203 194.469 503.609C193.344 502.984 191.875 502.672 190.062 502.672C188.562 502.672 187.266 502.938 186.172 503.469C185.078 503.969 184.234 504.656 183.641 505.531C183.078 506.375 182.797 507.312 182.797 508.344C182.797 509.125 182.953 509.828 183.266 510.453C183.609 511.047 184.156 511.594 184.906 512.094C185.656 512.594 186.625 513.062 187.812 513.5C189.031 513.906 190.531 514.281 192.312 514.625C195.969 515.375 199.234 516.359 202.109 517.578C204.984 518.766 207.266 520.391 208.953 522.453C210.641 524.484 211.484 527.156 211.484 530.469C211.484 532.719 210.984 534.781 209.984 536.656C208.984 538.531 207.547 540.172 205.672 541.578C203.797 542.953 201.547 544.031 198.922 544.812C196.328 545.562 193.406 545.938 190.156 545.938C185.438 545.938 181.438 545.094 178.156 543.406C174.906 541.719 172.438 539.578 170.75 536.984C169.094 534.359 168.266 531.672 168.266 528.922H181.062C181.125 530.766 181.594 532.25 182.469 533.375C183.375 534.5 184.516 535.312 185.891 535.812C187.297 536.312 188.812 536.562 190.438 536.562C192.188 536.562 193.641 536.328 194.797 535.859C195.953 535.359 196.828 534.703 197.422 533.891C198.047 533.047 198.359 532.078 198.359 530.984ZM265.953 545H251.094L251.188 534.031H265.953C269.641 534.031 272.75 533.203 275.281 531.547C277.812 529.859 279.719 527.406 281 524.188C282.312 520.969 282.969 517.078 282.969 512.516V509.188C282.969 505.688 282.594 502.609 281.844 499.953C281.125 497.297 280.047 495.062 278.609 493.25C277.172 491.438 275.406 490.078 273.312 489.172C271.219 488.234 268.812 487.766 266.094 487.766H250.812V476.75H266.094C270.656 476.75 274.828 477.531 278.609 479.094C282.422 480.625 285.719 482.828 288.5 485.703C291.281 488.578 293.422 492.016 294.922 496.016C296.453 499.984 297.219 504.406 297.219 509.281V512.516C297.219 517.359 296.453 521.781 294.922 525.781C293.422 529.781 291.281 533.219 288.5 536.094C285.75 538.938 282.453 541.141 278.609 542.703C274.797 544.234 270.578 545 265.953 545ZM259.062 476.75V545H245V476.75H259.062ZM329.938 545.938C326 545.938 322.469 545.312 319.344 544.062C316.219 542.781 313.562 541.016 311.375 538.766C309.219 536.516 307.562 533.906 306.406 530.938C305.25 527.938 304.672 524.75 304.672 521.375V519.5C304.672 515.656 305.219 512.141 306.312 508.953C307.406 505.766 308.969 503 311 500.656C313.062 498.312 315.562 496.516 318.5 495.266C321.438 493.984 324.75 493.344 328.438 493.344C332.031 493.344 335.219 493.938 338 495.125C340.781 496.312 343.109 498 344.984 500.188C346.891 502.375 348.328 505 349.297 508.062C350.266 511.094 350.75 514.469 350.75 518.188V523.812H310.438V514.812H337.484V513.781C337.484 511.906 337.141 510.234 336.453 508.766C335.797 507.266 334.797 506.078 333.453 505.203C332.109 504.328 330.391 503.891 328.297 503.891C326.516 503.891 324.984 504.281 323.703 505.062C322.422 505.844 321.375 506.938 320.562 508.344C319.781 509.75 319.188 511.406 318.781 513.312C318.406 515.188 318.219 517.25 318.219 519.5V521.375C318.219 523.406 318.5 525.281 319.062 527C319.656 528.719 320.484 530.203 321.547 531.453C322.641 532.703 323.953 533.672 325.484 534.359C327.047 535.047 328.812 535.391 330.781 535.391C333.219 535.391 335.484 534.922 337.578 533.984C339.703 533.016 341.531 531.562 343.062 529.625L349.625 536.75C348.562 538.281 347.109 539.75 345.266 541.156C343.453 542.562 341.266 543.719 338.703 544.625C336.141 545.5 333.219 545.938 329.938 545.938ZM385.859 530.984C385.859 530.016 385.578 529.141 385.016 528.359C384.453 527.578 383.406 526.859 381.875 526.203C380.375 525.516 378.203 524.891 375.359 524.328C372.797 523.766 370.406 523.062 368.188 522.219C366 521.344 364.094 520.297 362.469 519.078C360.875 517.859 359.625 516.422 358.719 514.766C357.812 513.078 357.359 511.156 357.359 509C357.359 506.875 357.812 504.875 358.719 503C359.656 501.125 360.984 499.469 362.703 498.031C364.453 496.562 366.578 495.422 369.078 494.609C371.609 493.766 374.453 493.344 377.609 493.344C382.016 493.344 385.797 494.047 388.953 495.453C392.141 496.859 394.578 498.797 396.266 501.266C397.984 503.703 398.844 506.484 398.844 509.609H385.344C385.344 508.297 385.062 507.125 384.5 506.094C383.969 505.031 383.125 504.203 381.969 503.609C380.844 502.984 379.375 502.672 377.562 502.672C376.062 502.672 374.766 502.938 373.672 503.469C372.578 503.969 371.734 504.656 371.141 505.531C370.578 506.375 370.297 507.312 370.297 508.344C370.297 509.125 370.453 509.828 370.766 510.453C371.109 511.047 371.656 511.594 372.406 512.094C373.156 512.594 374.125 513.062 375.312 513.5C376.531 513.906 378.031 514.281 379.812 514.625C383.469 515.375 386.734 516.359 389.609 517.578C392.484 518.766 394.766 520.391 396.453 522.453C398.141 524.484 398.984 527.156 398.984 530.469C398.984 532.719 398.484 534.781 397.484 536.656C396.484 538.531 395.047 540.172 393.172 541.578C391.297 542.953 389.047 544.031 386.422 544.812C383.828 545.562 380.906 545.938 377.656 545.938C372.938 545.938 368.938 545.094 365.656 543.406C362.406 541.719 359.938 539.578 358.25 536.984C356.594 534.359 355.766 531.672 355.766 528.922H368.562C368.625 530.766 369.094 532.25 369.969 533.375C370.875 534.5 372.016 535.312 373.391 535.812C374.797 536.312 376.312 536.562 377.938 536.562C379.688 536.562 381.141 536.328 382.297 535.859C383.453 535.359 384.328 534.703 384.922 533.891C385.547 533.047 385.859 532.078 385.859 530.984ZM422 494.281V545H408.453V494.281H422ZM407.609 481.062C407.609 479.094 408.297 477.469 409.672 476.188C411.047 474.906 412.891 474.266 415.203 474.266C417.484 474.266 419.312 474.906 420.688 476.188C422.094 477.469 422.797 479.094 422.797 481.062C422.797 483.031 422.094 484.656 420.688 485.938C419.312 487.219 417.484 487.859 415.203 487.859C412.891 487.859 411.047 487.219 409.672 485.938C408.297 484.656 407.609 483.031 407.609 481.062ZM465.266 494.281H477.5V543.312C477.5 547.938 476.469 551.859 474.406 555.078C472.375 558.328 469.531 560.781 465.875 562.438C462.219 564.125 457.969 564.969 453.125 564.969C451 564.969 448.75 564.688 446.375 564.125C444.031 563.562 441.781 562.688 439.625 561.5C437.5 560.312 435.719 558.812 434.281 557L440.234 549.031C441.797 550.844 443.609 552.25 445.672 553.25C447.734 554.281 450.016 554.797 452.516 554.797C454.953 554.797 457.016 554.344 458.703 553.438C460.391 552.562 461.688 551.266 462.594 549.547C463.5 547.859 463.953 545.812 463.953 543.406V506L465.266 494.281ZM431.141 520.25V519.266C431.141 515.391 431.609 511.875 432.547 508.719C433.516 505.531 434.875 502.797 436.625 500.516C438.406 498.234 440.562 496.469 443.094 495.219C445.625 493.969 448.484 493.344 451.672 493.344C455.047 493.344 457.875 493.969 460.156 495.219C462.438 496.469 464.312 498.25 465.781 500.562C467.25 502.844 468.391 505.547 469.203 508.672C470.047 511.766 470.703 515.156 471.172 518.844V521C470.703 524.531 470 527.812 469.062 530.844C468.125 533.875 466.891 536.531 465.359 538.812C463.828 541.062 461.922 542.812 459.641 544.062C457.391 545.312 454.703 545.938 451.578 545.938C448.453 545.938 445.625 545.297 443.094 544.016C440.594 542.734 438.453 540.938 436.672 538.625C434.891 536.312 433.516 533.594 432.547 530.469C431.609 527.344 431.141 523.938 431.141 520.25ZM444.641 519.266V520.25C444.641 522.344 444.844 524.297 445.25 526.109C445.656 527.922 446.281 529.531 447.125 530.938C448 532.312 449.078 533.391 450.359 534.172C451.672 534.922 453.219 535.297 455 535.297C457.469 535.297 459.484 534.781 461.047 533.75C462.609 532.688 463.781 531.234 464.562 529.391C465.344 527.547 465.797 525.422 465.922 523.016V516.875C465.859 514.906 465.594 513.141 465.125 511.578C464.656 509.984 464 508.625 463.156 507.5C462.312 506.375 461.219 505.5 459.875 504.875C458.531 504.25 456.938 503.938 455.094 503.938C453.312 503.938 451.766 504.344 450.453 505.156C449.172 505.938 448.094 507.016 447.219 508.391C446.375 509.766 445.734 511.391 445.297 513.266C444.859 515.109 444.641 517.109 444.641 519.266ZM501.219 505.109V545H487.719V494.281H500.375L501.219 505.109ZM499.25 517.859H495.594C495.594 514.109 496.078 510.734 497.047 507.734C498.016 504.703 499.375 502.125 501.125 500C502.875 497.844 504.953 496.203 507.359 495.078C509.797 493.922 512.516 493.344 515.516 493.344C517.891 493.344 520.062 493.688 522.031 494.375C524 495.062 525.688 496.156 527.094 497.656C528.531 499.156 529.625 501.141 530.375 503.609C531.156 506.078 531.547 509.094 531.547 512.656V545H517.953V512.609C517.953 510.359 517.641 508.609 517.016 507.359C516.391 506.109 515.469 505.234 514.25 504.734C513.062 504.203 511.594 503.938 509.844 503.938C508.031 503.938 506.453 504.297 505.109 505.016C503.797 505.734 502.703 506.734 501.828 508.016C500.984 509.266 500.344 510.734 499.906 512.422C499.469 514.109 499.25 515.922 499.25 517.859Z" fill="#F47C35" fill-opacity="0.1"/>
<circle cx="1189" cy="285" r="377" fill="#F1F6FB"/>
</g>
<defs>
<clipPath id="clip0_893_899">
<rect width="1440" height="1016" fill="white"/>
</clipPath>
</defs>
</svg>
