<svg width="110" height="110" viewBox="0 0 110 110" fill="none" xmlns="http://www.w3.org/2000/svg">
<path d="M78.7177 73.2187L71.1553 65.6563C70.124 64.625 68.0615 64.2813 66.6865 65.3125L59.124 70.4688C56.374 72.1875 52.9365 71.8437 50.5302 69.7812L31.624 50.875C29.5615 48.125 29.2177 44.6875 30.9365 41.9375L36.0927 34.375C37.124 33 36.7802 31.2812 35.749 29.9062L27.8428 22.3438C26.4678 20.9688 24.4052 20.9688 23.0302 22.3438L16.1552 28.875C12.7177 32.3125 11.3427 37.125 12.374 41.9375C14.4365 49.8437 18.2177 56.7188 24.0615 62.5625L38.1553 76.6562C43.999 82.5 50.874 86.2812 58.7802 88.3438C63.5927 89.375 68.4052 88 71.8427 84.5625L78.374 78.0312C80.0927 76.6562 80.0927 74.5937 78.7177 73.2187Z" fill="#67ACD5"/>
<path d="M73.9063 83.1875L79.0625 78.0312C80.4375 76.6562 80.4375 74.5937 79.0625 73.2187L71.5 65.6563C70.4688 64.625 68.4063 64.2813 67.0313 65.3125L60.5 69.7812L73.9063 83.1875ZM31.625 40.9062L36.0938 34.375C37.125 33 36.7813 31.2812 35.75 29.9062L27.8438 22.3438C26.4688 20.9688 24.4063 20.9688 23.0313 22.3438L17.875 27.1563L31.625 40.9062Z" fill="#5791D1"/>
<path d="M62.5623 90.4062C61.1873 90.4062 60.1561 90.4063 58.7811 90.0625C50.5311 88 43.3123 83.875 37.4686 78.0313L23.3748 63.9375C17.5311 58.0938 13.4061 50.5312 11.3436 42.625C9.62484 37.125 11.3436 31.625 15.1248 27.5L21.6561 20.9688C23.7186 18.9062 26.8123 18.9062 28.8748 20.9688L36.4373 28.5313C38.1561 30.25 38.4998 33 37.1248 35.0625L31.9686 42.625C30.9373 44.6875 31.2811 47.4375 32.9998 49.1563L51.9061 68.0625C53.6248 69.7812 56.3748 70.125 58.4373 68.75L65.9998 63.5938C68.0623 62.2188 70.8123 62.5625 72.5311 64.2813L80.0936 71.8438C81.1248 72.875 81.4686 74.25 81.4686 75.625C81.4686 77 80.7811 78.375 80.0936 79.4063L73.5623 85.9375C70.4686 89.0313 66.3436 90.4062 62.5623 90.4062ZM25.4373 23.0312C25.0936 23.0312 24.4061 23.0313 24.0623 23.375L17.5311 29.9062C14.4373 33 13.4061 37.125 14.4373 41.25C16.1561 48.8125 20.2811 55.6875 25.7811 60.8438L39.8748 74.9375C45.3748 80.4375 52.2498 84.2188 59.4686 86.2813C63.5936 87.3125 68.0623 85.9375 70.8123 83.1875L77.3436 76.6562C77.6873 76.3125 77.6873 75.9688 77.6873 75.2812C77.6873 74.9375 77.3436 74.25 77.3436 73.9063L69.7811 66.3437C69.0936 65.6562 68.4061 65.6563 67.7186 66L60.1561 71.1563C56.7186 73.5625 52.2498 72.875 49.1561 70.125L30.5936 51.5625C27.8436 48.8125 27.1561 44 29.5623 40.5625L34.3748 33.3437C34.7186 32.6562 34.7186 31.625 34.0311 31.2813L26.4686 23.375C26.1248 23.0313 25.7811 23.0312 25.4373 23.0312Z" fill="#40455A"/>
<path d="M31.625 41.9375C31.2813 41.9375 30.5938 41.9375 30.25 41.5938L17.875 29.5625C17.1875 28.875 17.1875 27.8438 17.875 27.1563C18.5625 26.4687 19.5938 26.4687 20.2813 27.1563L32.6563 39.1875C33.3438 39.875 33.3438 40.9063 32.6563 41.5938C32.3125 41.9375 31.9688 41.9375 31.625 41.9375ZM72.875 83.5313C72.5313 83.5313 71.8438 83.5313 71.5 83.1875L59.4687 71.1563C58.7812 70.4688 58.7812 69.4375 59.4687 68.75C60.1562 68.0625 61.1875 68.0625 61.875 68.75L73.9063 80.7813C74.5938 81.4688 74.5938 82.5 73.9063 83.1875C73.5625 83.1875 73.2188 83.5313 72.875 83.5313ZM76.3125 63.5938C77.6875 62.2188 79.75 62.2188 81.125 63.5938C82.5 64.9688 82.5 67.0313 81.125 68.4063M93.8438 71.8438H93.5C92.4688 71.5 92.125 70.8125 92.125 69.7813C93.5 64.9688 92.125 59.8125 88.6875 56.375C85.25 52.9375 80.0938 51.5625 75.2813 52.9375C74.25 53.2813 73.5625 52.5938 73.2188 51.5625C72.875 50.5313 73.5625 49.8438 74.5938 49.5C80.4375 47.7813 86.9688 49.5 91.0938 53.9688C95.5625 58.4375 97.2813 64.625 95.5625 70.4688C95.2188 71.1563 94.5313 71.8438 93.8438 71.8438Z" fill="#40455A"/>
<path d="M87.3121 69.7812H86.9683C85.9371 69.4375 85.5933 68.75 85.5933 67.7187C86.2808 65.3125 85.5933 62.9062 83.8746 61.1875C82.1558 59.4687 79.7496 58.7812 77.3433 59.4687C76.3121 59.8125 75.6246 59.125 75.2808 58.0937C74.9371 57.0625 75.6246 56.375 76.6558 56.0312C80.0933 55 83.8746 56.0312 86.6246 58.7812C89.3746 61.5312 90.4058 65.3125 89.3746 68.75C88.6871 69.4375 87.9996 69.7812 87.3121 69.7812Z" fill="#40455A"/>
</svg>
