<svg width="64" height="73" viewBox="0 0 64 73" fill="none" xmlns="http://www.w3.org/2000/svg">
<path d="M63.1871 30.0474C58.9391 25.6681 53.4974 22.6344 47.5387 21.3235C43.1641 20.224 38.6782 19.6279 34.1682 19.5468V7.47461C34.0969 5.42837 33.2181 3.49365 31.7241 2.09358C30.2301 0.693511 28.2425 -0.0579691 26.196 0.00349416C24.1494 -0.0579691 22.1618 0.693511 20.6678 2.09358C19.1738 3.49365 18.2951 5.42837 18.2237 7.47461V30.2524L14.5793 26.6535C12.9739 25.0787 10.8148 24.1965 8.56597 24.1965C6.31713 24.1965 4.15804 25.0787 2.55263 26.6535C1.74829 27.4306 1.10806 28.3612 0.669855 29.3902C0.231653 30.4192 0.00438863 31.5256 0.00152235 32.6441C-0.040242 34.8125 0.778772 36.9092 2.2793 38.4752L12.8937 51.0485C13.4043 54.2615 14.5089 57.3512 16.151 60.1596C17.349 62.3202 18.8872 64.2738 20.7065 65.9452V70.3185C20.6994 70.9421 20.9315 71.5447 21.3552 72.0024C21.779 72.46 22.362 72.7377 22.9843 72.7785H54.6682C55.2905 72.7377 55.8735 72.46 56.2972 72.0024C56.721 71.5447 56.9531 70.9421 56.946 70.3185V64.1685C61.4236 58.8402 63.8474 52.0858 63.7793 45.1263V31.4596C63.7508 30.9346 63.5416 30.4357 63.1871 30.0474ZM59.2237 45.2402C59.3693 51.2962 57.2585 57.1901 53.3015 61.7768C52.7969 62.1849 52.4703 62.7728 52.3904 63.4168V68.3368H25.376V64.9657C25.3765 64.5926 25.2854 64.2251 25.1107 63.8954C24.9359 63.5658 24.6829 63.2841 24.3737 63.0752C22.6685 61.6739 21.2592 59.9472 20.2282 57.9957C18.7749 55.5398 17.8443 52.8102 17.4949 49.9779C17.4704 49.4851 17.2866 49.0134 16.971 48.6341L5.7643 35.3774C5.3993 35.0172 5.10948 34.5881 4.91167 34.1149C4.71386 33.6418 4.612 33.1341 4.612 32.6213C4.612 32.1085 4.71386 31.6008 4.91167 31.1276C5.10948 30.6545 5.3993 30.2254 5.7643 29.8652C6.51428 29.1265 7.5247 28.7125 8.57736 28.7125C9.63001 28.7125 10.6404 29.1265 11.3904 29.8652L18.2237 36.6985V43.8507L22.7793 41.5729V7.47461C22.8603 6.64076 23.2618 5.87088 23.899 5.32707C24.5363 4.78325 25.3598 4.50792 26.196 4.55905C27.0322 4.50792 27.8556 4.78325 28.4929 5.32707C29.1302 5.87088 29.5316 6.64076 29.6126 7.47461V34.3524L34.1682 35.3318V24.1252C36.0798 24.1618 37.9882 24.2986 39.8854 24.5352V36.4479L43.5299 37.2452V25.0591C44.4637 25.2413 45.4204 25.4463 46.3999 25.6968C47.5806 26.0063 48.744 26.3789 49.8849 26.8129V38.5435L53.5293 39.3407V28.4757C55.6007 29.5193 57.5171 30.8455 59.2237 32.4163V45.2402Z" fill="#FDC830"/>
</svg>
