<svg width="97" height="97" viewBox="0 0 97 97" fill="none" xmlns="http://www.w3.org/2000/svg">
<g clip-path="url(#clip0_1126_2771)">
<path d="M12.7313 31.3734V45.6203L3.78906 38.6484L12.7313 31.3734Z" fill="#FBB553"/>
<path d="M97.0008 38.6484V38.4969V38.3453V38.1937C97.0008 38.1937 97.0008 38.0422 96.8492 38.0422V37.8906L96.6977 37.739L84.4211 27.7359V11.5187C84.4211 10.7609 83.8148 10.0031 82.9055 10.0031H62.5961L54.4117 3.33436C50.9258 0.606238 46.0758 0.606238 42.5898 3.33436L34.4055 10.0031H14.2477C13.4898 10.0031 12.732 10.6094 12.732 11.5187V27.7359L0.455469 37.739C0.455469 37.739 0.455469 37.739 0.455469 37.8906C0.455469 37.8906 0.455469 37.8906 0.303906 38.0422L0.152344 38.1937V38.3453V38.4969C0.152344 38.4969 0.152344 38.6484 0.152344 38.8V94.2719V94.4234C0.152344 94.575 0.152344 94.575 0.152344 94.7266C0.152344 94.8781 0.152344 94.8781 0.303906 95.0297V95.1812L0.455469 95.3328C0.607031 95.4844 0.758594 95.4844 0.910156 95.6359C0.910156 95.6359 0.910156 95.6359 1.06172 95.6359C1.21328 95.6359 1.36484 95.7875 1.51641 95.7875H95.4852C95.6367 95.7875 95.7883 95.7875 95.9398 95.6359C95.9398 95.6359 95.9398 95.6359 96.0914 95.6359C96.243 95.6359 96.3945 95.4844 96.5461 95.3328L96.6977 95.1812V95.0297C96.6977 94.8781 96.6977 94.8781 96.8492 94.7266C96.8492 94.575 96.8492 94.575 96.8492 94.4234C96.8492 94.4234 96.8492 94.4234 96.8492 94.2719L97.0008 38.6484ZM84.2695 31.3734L93.2117 38.6484L84.2695 45.4687V31.3734ZM44.4086 5.6078C46.8336 3.63749 50.168 3.63749 52.593 5.6078L57.8977 10.0031H39.1039L44.4086 5.6078ZM15.7633 12.8828H81.3898V47.7422L56.2305 67.1422H40.7711L15.7633 47.8937V12.8828ZM12.732 31.3734V45.4687L3.78984 38.6484L12.732 31.3734ZM2.88047 41.6797L37.5883 68.5062L2.88047 91.5437V41.6797ZM6.36641 92.7562L40.7711 70.0219H56.382L90.7867 92.7562H6.36641ZM94.1211 91.5437L59.2617 68.5062L93.9695 41.6797V91.5437H94.1211Z" fill="black"/>
<path d="M15.7617 12.8828V47.7422L40.7695 66.9906H56.2289L81.2367 47.7422V12.8828H15.7617ZM71.2336 50.6219H25.7648C25.007 50.6219 24.2492 50.0156 24.2492 49.1063C24.2492 48.3484 24.8555 47.5906 25.7648 47.5906H71.2336C71.9914 47.5906 72.7492 48.1969 72.7492 49.1063C72.5977 49.8641 71.9914 50.6219 71.2336 50.6219ZM71.2336 41.3766H25.7648C25.007 41.3766 24.2492 40.7703 24.2492 39.8609C24.2492 39.1031 24.8555 38.3453 25.7648 38.3453H71.2336C71.9914 38.3453 72.7492 38.9516 72.7492 39.8609C72.5977 40.7703 71.9914 41.3766 71.2336 41.3766ZM71.2336 32.1313H25.7648C25.007 32.1313 24.2492 31.525 24.2492 30.6156C24.2492 29.8578 24.8555 29.1 25.7648 29.1H71.2336C71.9914 29.1 72.7492 29.7063 72.7492 30.6156C72.5977 31.525 71.9914 32.1313 71.2336 32.1313ZM71.2336 23.0375H25.7648C25.007 23.0375 24.2492 22.4312 24.2492 21.5219C24.2492 20.7641 24.8555 20.0062 25.7648 20.0062H71.2336C71.9914 20.0062 72.7492 20.6125 72.7492 21.5219C72.5977 22.4312 71.9914 23.0375 71.2336 23.0375Z" fill="#D5D6D5"/>
<path d="M18.6414 12.8828V50.1672L15.7617 47.8938V12.8828H18.6414Z" fill="#EDECED"/>
<path d="M78.3594 12.8828V50.1672L81.2391 47.8938V12.8828H78.3594Z" fill="#BFBEBC"/>
<path d="M90.6359 92.7562H6.36719L40.6203 70.0219H56.3828L90.6359 92.7562Z" fill="#5ACAF4"/>
<path d="M90.6359 92.7563H6.36719L9.24688 90.7859H87.7563L90.6359 92.7563Z" fill="#36A1CF"/>
<path d="M87.7555 90.786H9.24609L15.3086 86.8453H81.693L87.7555 90.786Z" fill="#43B4DC"/>
<path d="M94.1211 41.6797V91.5438L59.2617 68.5063L94.1211 41.6797Z" fill="#5ACAF4"/>
<path d="M93.2117 38.6484L84.2695 45.6203V31.3734L93.2117 38.6484Z" fill="#FBB553"/>
<path d="M93.2117 38.6484L91.6961 39.7094L84.2695 33.6469V31.3734L93.2117 38.6484Z" fill="#E8932F"/>
<path d="M91.6961 39.7094L89.2711 41.6797L84.2695 37.5875V33.6469L91.6961 39.7094Z" fill="#F1A444"/>
<path d="M3.78906 38.6484L5.15313 39.7094L12.7313 33.6469V31.3734L3.78906 38.6484Z" fill="#E8932F"/>
<path d="M5.15234 39.7094L7.72891 41.6797L12.7305 37.5875V33.6469L5.15234 39.7094Z" fill="#F1A444"/>
<path d="M37.7383 68.5063L2.87891 91.5438V41.6797L37.7383 68.5063Z" fill="#5ACAF4"/>
<path d="M5.30391 43.4984V90.0281L2.87891 91.5438V41.6797L5.30391 43.4984Z" fill="#36A1CF"/>
<path d="M10.9125 47.7422V86.239L5.30469 90.0281V43.4984L10.9125 47.7422Z" fill="#43B4DC"/>
<path d="M91.6953 43.4984V90.0281L94.1203 91.5438V41.6797L91.6953 43.4984Z" fill="#36A1CF"/>
<path d="M86.0859 47.7422V86.239L91.6938 90.0281V43.4984L86.0859 47.7422Z" fill="#43B4DC"/>
<path d="M57.8953 10.0031H39.1016L44.4062 5.6078C46.8313 3.63749 50.1656 3.63749 52.5906 5.6078L57.8953 10.0031Z" fill="#FBB553"/>
<path d="M57.8953 10.0031H56.0766L52.4391 7.12342C50.1656 5.15311 46.6797 5.15311 44.4062 7.12342L40.9203 10.0031H39.1016L44.4062 5.6078C46.8313 3.63749 50.1656 3.63749 52.5906 5.6078L57.8953 10.0031Z" fill="#E8932F"/>
<path d="M56.0781 10.0031H53.0469L52.4406 9.54843C50.0156 7.57811 46.6813 7.57811 44.2563 9.54843L43.9531 10.0031H40.9219L44.4078 7.12343C46.8328 5.15311 50.1672 5.15311 52.4406 7.12343L56.0781 10.0031Z" fill="#F1A444"/>
<path d="M72.5984 21.5219C72.5984 22.2797 71.9922 23.0375 71.0828 23.0375H25.7656C25.0078 23.0375 24.25 22.4312 24.25 21.5219C24.25 20.764 24.8562 20.0062 25.7656 20.0062H71.2344C71.9922 20.0062 72.5984 20.764 72.5984 21.5219ZM72.5984 30.7672C72.5984 31.525 71.9922 32.2828 71.0828 32.2828H25.7656C25.0078 32.2828 24.25 31.6765 24.25 30.7672C24.25 30.0093 24.8562 29.2515 25.7656 29.2515H71.2344C71.9922 29.2515 72.5984 29.8578 72.5984 30.7672ZM72.5984 39.8609C72.5984 40.6187 71.9922 41.3765 71.0828 41.3765H25.7656C25.0078 41.3765 24.25 40.7703 24.25 39.8609C24.25 39.1031 24.8562 38.3453 25.7656 38.3453H71.2344C71.9922 38.4968 72.5984 39.1031 72.5984 39.8609ZM72.5984 49.1062C72.5984 49.864 71.9922 50.6219 71.0828 50.6219H25.7656C25.0078 50.6219 24.25 50.0156 24.25 49.1062C24.25 48.3484 24.8562 47.5906 25.7656 47.5906H71.2344C71.9922 47.5906 72.5984 48.1969 72.5984 49.1062Z" fill="black"/>
</g>
<defs>
<clipPath id="clip0_1126_2771">
<rect width="97" height="97" fill="white"/>
</clipPath>
</defs>
</svg>
