<svg width="100" height="100" viewBox="0 0 100 100" fill="none" xmlns="http://www.w3.org/2000/svg">
<path d="M33.9844 45.4318L50 33.8511L66.0156 45.4318L59.933 64.1389H40.1228L33.9844 45.4318ZM50 0C56.7708 0 63.244 1.31767 69.4196 3.95301C75.5952 6.58835 80.9152 10.1331 85.3795 14.5872C89.8437 19.0412 93.3966 24.349 96.0379 30.5105C98.6793 36.672 100 43.1305 100 49.8858C100 56.6412 98.6793 63.0997 96.0379 69.2612C93.3966 75.4226 89.8437 80.7304 85.3795 85.1845C80.9152 89.6386 75.5952 93.1833 69.4196 95.8187C63.244 98.454 56.7708 99.7717 50 99.7717C43.2292 99.7717 36.756 98.454 30.5804 95.8187C24.4048 93.1833 19.0848 89.6386 14.6205 85.1845C10.1562 80.7304 6.60342 75.4226 3.96205 69.2612C1.32068 63.0997 0 56.6412 0 49.8858C0 43.1305 1.32068 36.672 3.96205 30.5105C6.60342 24.349 10.1562 19.0412 14.6205 14.5872C19.0848 10.1331 24.4048 6.58835 30.5804 3.95301C36.756 1.31767 43.2292 0 50 0ZM84.5424 75.1628C90.0856 67.628 92.8571 59.2023 92.8571 49.8858V49.7188L87.1652 54.674L73.7723 42.2025L77.2879 24.2191L84.7656 24.8872C79.1853 17.2411 71.9494 12.0075 63.058 9.18657L66.0156 16.0904L50 24.9429L33.9844 16.0904L36.942 9.18657C28.0506 12.0075 20.8147 17.2411 15.2344 24.8872L22.7679 24.2191L26.2277 42.2025L12.8348 54.674L7.14286 49.7188V49.8858C7.14286 59.2023 9.91443 67.628 15.4576 75.1628L17.1317 67.8136L35.3237 70.0406L43.0804 86.6321L36.6071 90.4738C40.9598 91.9214 45.4241 92.6451 50 92.6451C54.5759 92.6451 59.0402 91.9214 63.3929 90.4738L56.9196 86.6321L64.6763 70.0406L82.8683 67.8136L84.5424 75.1628Z" fill="#F8F7F4"/>
</svg>
