<svg width="112" height="90" viewBox="0 0 112 90" fill="none" xmlns="http://www.w3.org/2000/svg">
<path d="M110.359 86.7232H84.3577C89.105 83.9456 92.6409 79.4966 94.2712 74.2496C94.3675 73.9415 94.4572 73.6292 94.5403 73.3168C95.0357 71.4553 95.2836 69.5368 95.2777 67.6108C95.2777 67.2918 95.2777 66.9707 95.2536 66.6496C95.0591 62.5325 93.7154 58.5517 91.3744 55.1568C88.5781 51.0654 84.4722 48.0443 79.7303 46.5891C79.4962 46.517 79.262 46.4471 79.0323 46.3837C73.8588 44.959 68.343 45.4601 63.5121 47.7938C58.6811 50.1276 54.8643 54.1348 52.7724 59.0693C50.6806 64.0039 50.4562 69.5293 52.1412 74.6167C53.8262 79.7041 57.3056 84.0067 61.9315 86.7232H19.9233V41.1103L26.3098 33.2809C29.7813 29.0216 34.5761 26.0397 39.9357 24.8068C45.2952 23.5739 50.9134 24.1606 55.9015 26.474C56.227 26.6271 56.5939 26.6692 56.9457 26.5937C57.2975 26.5182 57.6147 26.3294 57.8485 26.0562C58.0822 25.7831 58.2196 25.4408 58.2394 25.0821C58.2592 24.7234 58.1604 24.3681 57.9582 24.071L50.167 12.4253C47.0246 7.73051 42.5323 4.09565 37.2812 1.99901C32.0301 -0.0976297 26.2662 -0.557796 20.7481 0.679064L17.9279 1.31039C17.564 1.39181 17.2387 1.59455 17.0057 1.88522C16.7726 2.17588 16.6457 2.53713 16.6458 2.90947V86.7232H1.64095C1.20574 86.7232 0.788359 86.8958 0.480622 87.2031C0.172885 87.5103 0 87.9271 0 88.3616C0 88.7961 0.172885 89.2129 0.480622 89.5201C0.788359 89.8274 1.20574 90 1.64095 90H110.359C110.794 90 111.212 89.8274 111.519 89.5201C111.827 89.2129 112 88.7961 112 88.3616C112 87.9271 111.827 87.5103 111.519 87.2031C111.212 86.8958 110.794 86.7232 110.359 86.7232ZM19.9233 4.22018L21.4548 3.87503C26.3271 2.80594 31.4088 3.22414 36.0401 5.07531C40.6713 6.92649 44.6381 10.1251 47.4255 14.2559L52.4577 21.786C47.2713 20.4489 41.8095 20.6259 36.7208 22.296C31.6322 23.9661 27.1304 27.0591 23.75 31.2078L19.9233 35.9177V4.22018ZM91.7704 70.5337C91.7529 70.6516 91.7376 70.7674 91.7179 70.8854C91.6895 71.0405 91.6567 71.1978 91.626 71.3529C91.602 71.4643 91.5845 71.5713 91.5582 71.6871C91.5232 71.8531 91.4794 72.017 91.44 72.183C91.4138 72.2835 91.3919 72.384 91.3657 72.4845C91.2956 72.7488 91.2191 73.0131 91.1469 73.2753C91.0747 73.5374 90.9762 73.7996 90.8843 74.0551C90.8515 74.1491 90.8143 74.2386 90.7793 74.3282C90.718 74.4942 90.6568 74.6603 90.5889 74.8219C90.5474 74.9224 90.5036 75.0207 90.4599 75.1212C90.3942 75.2719 90.3308 75.4227 90.2629 75.5712C90.2148 75.6761 90.1623 75.7787 90.112 75.8814C90.0463 76.019 89.9807 76.1588 89.9107 76.2943L88.622 72.491L91.847 70.088C91.8186 70.2388 91.7945 70.383 91.7704 70.5337ZM81.4347 50.779L81.8285 50.9734L82.1567 51.1482C82.2858 51.2181 82.4127 51.288 82.5374 51.3666L82.859 51.5545L83.2288 51.773C83.3338 51.8407 83.4476 51.9062 83.5416 51.9761C83.6357 52.046 83.7823 52.1356 83.9005 52.2186L84.2024 52.4371C84.3205 52.5223 84.4365 52.6096 84.5525 52.697L84.8434 52.9155C84.9572 53.005 85.0622 53.099 85.1848 53.1929C85.3073 53.2868 85.3707 53.3458 85.4626 53.4267C85.5545 53.5075 85.6814 53.6233 85.7952 53.7237L86.0599 53.964C86.1715 54.0689 86.2787 54.1825 86.3903 54.2874L86.5894 54.4862L82.5286 54.5342L81.2159 50.6763L81.4347 50.779ZM82.1107 57.8176L89.1405 57.7324C90.6929 60.2181 91.6422 63.0315 91.9126 65.9484L86.3684 70.0727L80.8155 68.3251L78.61 61.8152L82.1107 57.8176ZM68.6878 49.3962C71.5116 48.7034 74.4586 48.6802 77.2929 49.3285L79.494 55.8209L75.9933 59.8251L68.9788 59.9103L66.5721 56.1573L68.6878 49.3962ZM77.5861 69.0438L72.5604 72.7859L67.4385 69.164L69.3048 63.174L75.582 63.0976L77.5861 69.0438ZM64.8086 50.8314L63.579 54.7745L59.4219 54.8248C60.9643 53.1832 62.7886 51.8307 64.8086 50.8314ZM55.1555 62.0817C55.5855 60.7033 56.1728 59.3788 56.9058 58.1343L63.9072 58.0491L66.3139 61.8021L64.1894 68.6047L60.0652 70.3524L54.3612 66.3197C54.4629 64.8814 54.7294 63.4595 55.1555 62.0817ZM56.7001 76.8164C55.6075 74.8501 54.8754 72.7046 54.5385 70.4813L57.9298 72.8842L56.7001 76.8164ZM59.0806 80.2002L61.192 73.4282L65.3162 71.6806L71.0354 75.7241L71.6306 81.0391L66.1235 85.1351C63.4243 84.0568 61.0132 82.3666 59.0806 80.198V80.2002ZM76.4199 86.2142L75.9823 86.2907L75.6279 86.3387L75.1903 86.3955L74.8315 86.4283C74.6849 86.4414 74.5361 86.4545 74.3939 86.4633C74.2517 86.472 74.151 86.4785 74.0307 86.4829C73.9104 86.4873 73.7375 86.496 73.5931 86.4982C73.4487 86.5004 73.3481 86.4982 73.2256 86.4982H72.788L72.4182 86.4873C72.2738 86.4873 72.1272 86.4742 71.9806 86.4633L71.6109 86.437L71.1733 86.3934L70.8057 86.3518L70.3681 86.2885L70.1362 86.2514L73.4072 83.8178L76.7219 86.1618C76.6103 86.1793 76.5162 86.1946 76.4199 86.212V86.2142ZM74.9146 80.8818L74.3195 75.5668L79.8462 71.4599L85.3992 73.2075L87.6156 79.7611C85.7328 82.0081 83.3503 83.7848 80.6579 84.9494L74.9146 80.8818Z" fill="#356DA4"/>
</svg>
