<svg width="183" height="135" viewBox="0 0 183 135" fill="none" xmlns="http://www.w3.org/2000/svg">
<g clip-path="url(#clip0_1126_2801)">
<path d="M93.5982 12.19C93.0682 11.766 92.4322 11.66 91.7962 11.766L40.9162 22.366C39.9622 22.578 39.2202 23.426 39.2202 24.486V67.734C36.3582 64.554 32.2242 62.646 27.5602 62.646C18.7622 62.646 11.6602 69.748 11.6602 78.546C11.6602 87.344 18.7622 94.446 27.5602 94.446C36.3582 94.446 43.4602 87.344 43.4602 78.546V40.916L90.1002 31.164V57.028C87.2382 53.848 82.9982 51.94 78.4402 51.94C69.6422 51.94 62.5402 59.042 62.5402 67.84C62.5402 76.638 69.6422 83.74 78.4402 83.74C87.2382 83.74 94.3402 76.638 94.3402 67.84V13.78C94.3402 13.144 94.0222 12.508 93.5982 12.19ZM27.5602 90.1C21.0942 90.1 15.9002 84.906 15.9002 78.44C15.9002 71.974 21.0942 66.78 27.5602 66.78C34.0262 66.78 39.2202 71.974 39.2202 78.44C39.2202 84.906 34.0262 90.1 27.5602 90.1ZM78.4402 79.5C71.9742 79.5 66.7802 74.306 66.7802 67.84C66.7802 61.374 71.9742 56.18 78.4402 56.18C84.9062 56.18 90.1002 61.374 90.1002 67.84C90.1002 74.306 84.9062 79.5 78.4402 79.5ZM90.1002 26.924L43.4602 36.676V26.182L90.1002 16.43V26.924Z" fill="#F8F7F4"/>
<path d="M703.84 -689V1096.04H-1187.2V-689H703.84ZM712.32 -697.48H-1195.68V1104.52H712.32V-697.48Z" fill="#0000FF"/>
</g>
<path d="M157.583 89.2499V33.3333C157.579 32.5697 157.404 31.8168 157.069 31.1304C156.735 30.4439 156.25 29.8417 155.651 29.3683C155.061 28.8905 154.37 28.5512 153.632 28.3753C152.893 28.1994 152.124 28.1913 151.381 28.3516L105.631 38.5183C104.502 38.773 103.493 39.4056 102.772 40.3114C102.051 41.2173 101.661 42.3422 101.666 43.4999V85.8949C98.1959 84.2567 94.288 83.7878 90.5288 84.5586C86.7695 85.3295 83.3615 87.2985 80.816 90.1703C78.2706 93.0421 76.725 96.6618 76.411 100.486C76.0971 104.311 77.0318 108.134 79.0748 111.383C81.1179 114.631 84.1591 117.13 87.7424 118.503C91.3257 119.877 95.2577 120.052 98.9486 119.001C102.64 117.951 105.89 115.732 108.213 112.677C110.536 109.623 111.806 105.897 111.833 102.06C111.885 101.18 111.885 100.297 111.833 99.4166V47.5666L147.416 39.6874V75.7283C143.944 74.089 140.034 73.6205 136.273 74.3931C132.511 75.1656 129.102 77.1376 126.558 80.0128C124.013 82.888 122.469 86.5113 122.159 90.3384C121.849 94.1656 122.789 97.99 124.838 101.237C126.887 104.485 129.934 106.98 133.522 108.348C137.109 109.716 141.044 109.883 144.735 108.824C148.426 107.765 151.673 105.537 153.99 102.475C156.307 99.4131 157.567 95.6821 157.583 91.8424C157.631 90.9789 157.631 90.1134 157.583 89.2499Z" fill="#F8F7F4"/>
<defs>
<clipPath id="clip0_1126_2801">
<rect width="106" height="106" fill="white"/>
</clipPath>
</defs>
</svg>
