<svg width="101" height="76" viewBox="0 0 101 76" fill="none" xmlns="http://www.w3.org/2000/svg">
<path d="M88.7903 61.3267H19.3171C18.6168 61.3264 17.9236 61.4668 17.2787 61.7395C16.6339 62.0122 16.0506 62.4116 15.5635 62.914L4.54061 74.369C4.25482 74.666 3.88616 74.8704 3.48253 74.9556C3.07889 75.0408 2.65892 75.0028 2.27717 74.8467C1.89541 74.6905 1.5695 74.4234 1.34178 74.0799C1.11405 73.7365 0.995025 73.3326 1.00016 72.9207V12.1031C0.999082 10.6447 1.28601 9.20045 1.84452 7.85287C2.40304 6.50529 3.22218 5.28087 4.2551 4.24963C5.28802 3.2184 6.51445 2.40059 7.86424 1.84299C9.21402 1.28538 10.6607 0.998927 12.1214 1H90.5523C92.9432 1 95.2362 1.94825 96.9269 3.63614C98.6175 5.32402 99.5673 7.61329 99.5673 10.0003V50.5018C99.5739 53.3634 98.4426 56.1106 96.422 58.1402C94.4014 60.1698 91.6565 61.3159 88.7903 61.3267Z" fill="#78A9EF" stroke="black" stroke-miterlimit="10"/>
<path d="M61.8026 14.9095H16.793V19.1233H61.8026V14.9095Z" fill="white" stroke="black" stroke-miterlimit="10"/>
<path d="M61.8026 28.0991H16.793V32.3129H61.8026V28.0991Z" fill="white" stroke="black" stroke-miterlimit="10"/>
<path d="M61.8026 41.2805H16.793V45.4943H61.8026V41.2805Z" fill="white" stroke="black" stroke-miterlimit="10"/>
<path d="M77.7826 35.6512V34.9558C77.7499 33.6962 77.8738 32.4375 78.1514 31.2083C78.3492 30.3893 78.7303 29.6257 79.266 28.9746C79.7848 28.3793 80.3865 27.8613 81.0526 27.4364C81.6591 27.0437 82.2 26.6182 82.6917 26.2827C83.1229 25.9636 83.4993 25.5768 83.8063 25.1372C84.0922 24.718 84.2411 24.2207 84.2324 23.7135C84.2438 23.2796 84.1302 22.8515 83.905 22.4802C83.6798 22.1089 83.3526 21.81 82.9621 21.6189C82.559 21.4135 82.1116 21.3096 81.6591 21.3162C81.1635 21.314 80.6755 21.4379 80.2412 21.6762C79.8145 21.9074 79.4558 22.2458 79.2004 22.658C78.9332 23.0933 78.7966 23.5959 78.807 24.1063H71.4966C71.4393 22.3042 71.937 20.5278 72.9227 19.017C73.8519 17.7156 75.1425 16.7143 76.6352 16.1369C78.2552 15.4982 79.9829 15.176 81.7246 15.1878C83.5802 15.1558 85.4264 15.4579 87.1746 16.0796C88.6685 16.5888 89.9833 17.5179 90.9609 18.7552C91.928 20.0404 92.428 21.6159 92.3788 23.2226C92.4006 24.2622 92.1994 25.2944 91.7887 26.25C91.4007 27.1151 90.8434 27.894 90.1496 28.541C89.4034 29.2373 88.5782 29.8441 87.6909 30.3492C87.0748 30.6995 86.4955 31.1107 85.9617 31.5765C85.513 31.9781 85.153 32.4686 84.9045 33.0166C84.6533 33.6344 84.5333 34.2975 84.5521 34.9639V35.6512H77.7826ZM81.2657 45.2243C80.7415 45.231 80.2214 45.1315 79.7368 44.9318C79.2522 44.7321 78.8132 44.4364 78.4464 44.0624C78.0659 43.6973 77.7659 43.2569 77.5655 42.7695C77.3651 42.282 77.2688 41.7582 77.2827 41.2314C77.2712 40.7135 77.3689 40.199 77.5694 39.7211C77.7699 39.2433 78.0687 38.8129 78.4464 38.4577C79.1912 37.7182 80.1989 37.3031 81.2493 37.3031C82.2997 37.3031 83.3074 37.7182 84.0521 38.4577C84.4375 38.81 84.7451 39.2386 84.9553 39.7162C85.1656 40.1937 85.2738 40.7098 85.2733 41.2314C85.271 41.9448 85.0726 42.6439 84.6996 43.2524C84.3312 43.8412 83.8285 44.3347 83.2326 44.6925C82.6378 45.0455 81.9576 45.2294 81.2657 45.2243Z" fill="white" stroke="black" stroke-miterlimit="10"/>
</svg>
