<svg width="90" height="73" viewBox="0 0 90 73" fill="none" xmlns="http://www.w3.org/2000/svg">
<path d="M74.4772 57.66C78.7211 57.66 82.1615 54.2016 82.1615 49.9356C82.1615 45.6695 78.7211 42.2112 74.4772 42.2112C70.2333 42.2112 66.793 45.6695 66.793 49.9356C66.793 54.2016 70.2333 57.66 74.4772 57.66Z" fill="#FF5A67"/>
<path d="M15.6218 57.8807C19.8657 57.8807 23.306 54.4224 23.306 50.1563C23.306 45.8903 19.8657 42.4319 15.6218 42.4319C11.3778 42.4319 7.9375 45.8903 7.9375 50.1563C7.9375 54.4224 11.3778 57.8807 15.6218 57.8807Z" fill="#F47C35"/>
<path d="M17.4616 55.7585C21.7055 55.7585 25.1459 52.3001 25.1459 48.034C25.1459 43.7679 21.7055 40.3096 17.4616 40.3096C13.2177 40.3096 9.77734 43.7679 9.77734 48.034C9.77734 52.3001 13.2177 55.7585 17.4616 55.7585Z" stroke="#F47C35" stroke-linecap="round" stroke-linejoin="round"/>
<path d="M10.875 31.4839H24.0459" stroke="#356DA4" stroke-linecap="round" stroke-linejoin="round"/>
<path d="M72.3405 55.7585C76.5844 55.7585 80.0248 52.3001 80.0248 48.034C80.0248 43.7679 76.5844 40.3096 72.3405 40.3096C68.0966 40.3096 64.6562 43.7679 64.6562 48.034C64.6562 52.3001 68.0966 55.7585 72.3405 55.7585Z" stroke="#FDC830" stroke-linecap="round" stroke-linejoin="round"/>
<path d="M65.7578 31.4839H78.9287" stroke="#356DA4" stroke-linecap="round" stroke-linejoin="round"/>
<path d="M35.0273 27.0676V62.3771M54.7837 27.0676V62.3771" stroke="#356DA4" stroke-width="1.00015" stroke-linecap="round" stroke-linejoin="round"/>
<path d="M35.0547 42.5156H54.7496M35.0547 51.343H54.7496" stroke="#356DA4" stroke-width="1.00015" stroke-linecap="round" stroke-linejoin="round"/>
<path d="M1 17.4448H88.8061V72H1V17.4448Z" stroke="#356DA4" stroke-linecap="round" stroke-linejoin="round"/>
<path d="M20.7578 18.654V10.6737C20.7578 5.41285 25.1481 1 29.5384 1H60.2706C64.6609 1 69.0512 5.41538 69.0512 10.4705V18.654" stroke="#356DA4"/>
</svg>
