<svg width="120" height="114" viewBox="0 0 120 114" fill="none" xmlns="http://www.w3.org/2000/svg">
<path d="M79.5543 31.8303H79.5991M96.3547 31.8303H96.3995M116 30.6225C116 45.328 103.461 57.2505 87.9993 57.2505C86.1774 57.2505 84.3723 57.0835 82.584 56.7496C81.2959 56.5102 80.6519 56.3934 80.2039 56.4601C79.7559 56.5269 79.1175 56.8609 77.8519 57.5344C74.2283 59.454 70.058 60.0994 66.0188 59.3656C67.5627 57.4695 68.6095 55.2224 69.0652 52.8255C69.3452 51.3505 68.6508 49.92 67.6092 48.8736C62.7493 44.026 60.0137 37.4658 59.9986 30.6225C59.9986 15.9225 72.5373 4 87.9993 4C103.461 4 116 15.9225 116 30.6225ZM34.8092 109.755H19.2184C17.4096 109.755 15.5895 109.499 13.9263 108.792C8.51654 106.482 5.76687 103.427 4.49004 101.517C4.14351 100.989 3.97326 100.365 4.00341 99.7344C4.03357 99.104 4.2626 98.499 4.65804 98.0052C10.9302 89.7229 25.4906 84.7246 34.8372 84.7246C44.1782 84.7246 58.7162 89.7229 64.9883 98.0052C65.778 99.0461 65.8844 100.432 65.1563 101.517C63.8739 103.427 61.1242 106.482 55.7145 108.792C54.0338 109.464 52.2337 109.792 50.4224 109.755H34.8092ZM50.4 55.7032C50.397 57.7323 49.992 59.7409 49.208 61.6145C48.4241 63.488 47.2765 65.1897 45.8308 66.6224C44.3852 68.0552 42.6697 69.1908 40.7825 69.9646C38.8952 70.7384 36.8731 71.1352 34.8316 71.1323C30.7105 71.1352 26.7568 69.5117 23.8396 66.6185C20.9224 63.7253 19.2803 59.7992 19.2744 55.7032C19.2766 53.6741 19.6809 51.6652 20.4642 49.7914C21.2475 47.9176 22.3945 46.2155 23.8396 44.7823C25.2847 43.349 26.9998 42.2127 28.8867 41.4382C30.7737 40.6638 32.7957 40.2663 34.8372 40.2685C36.8787 40.2663 38.9007 40.6638 40.7877 41.4382C42.6746 42.2127 44.3897 43.349 45.8348 44.7823C47.2799 46.2155 48.4269 47.9176 49.2102 49.7914C49.9935 51.6652 50.3978 53.6741 50.4 55.7032Z" stroke="#F8F7F4" stroke-width="8" stroke-linecap="round" stroke-linejoin="round"/>
</svg>
