<svg width="102" height="109" viewBox="0 0 102 109" fill="none" xmlns="http://www.w3.org/2000/svg">
<path d="M90.3574 0.000587539C87.1254 -0.0271266 83.9608 0.926205 81.2799 2.73512C80.6894 3.17188 80.2558 3.78839 80.0439 4.4925C79.8321 5.1966 79.8533 5.95049 80.1046 6.64149L81.2892 9.89986C81.4736 10.4072 81.7758 10.8634 82.1709 11.2307C82.5659 11.598 83.0424 11.866 83.5611 12.0126C84.0798 12.1591 84.6258 12.1801 85.1542 12.0736C85.6826 11.9672 86.1781 11.7364 86.6 11.4004C87.4427 10.8402 88.4311 10.5401 89.4424 10.5374C90.7578 10.5642 90.7579 10.9048 90.7579 11.5784C90.7579 12.7605 90.0476 14.0727 88.0436 16.5927C84.421 21.0714 83.9773 25.2126 84.2558 27.9145L84.3507 29.2057C84.4138 30.0635 84.7985 30.8657 85.4274 31.4512C86.0564 32.0366 86.8832 32.362 87.7417 32.362H91.5915C92.0489 32.362 92.5017 32.2695 92.9227 32.0901C93.3436 31.9106 93.7241 31.6479 94.0413 31.3177C94.3585 30.9875 94.606 30.5965 94.7688 30.1682C94.9317 29.7399 95.0066 29.283 94.9891 28.825L94.9397 27.5322L94.9368 27.4714C94.8614 26.1276 95.0589 24.553 96.9987 22.1507C99.6278 18.9373 102 15.6531 102 11.0094C102 5.7072 98.3567 0.000587539 90.3574 0.000587539ZM94.3553 20.0082C92.1838 22.6975 91.394 25.025 91.542 27.6627L91.5915 28.9555H87.7417L87.6428 27.6106C87.3467 24.8698 88.2352 21.7665 90.703 18.7154C92.924 15.9225 94.158 13.9059 94.158 11.5785C94.158 8.94079 92.5786 7.18245 89.4692 7.1309C87.6805 7.12677 85.9361 7.68775 84.484 8.73407L83.2993 5.4757C85.3956 4.10094 87.8522 3.38095 90.3574 3.40705C96.0333 3.40705 98.5999 7.07881 98.5999 11.0094C98.5999 14.526 96.7246 17.1122 94.3553 20.0082ZM90.1138 35.7684C89.1051 35.7656 88.1182 36.0626 87.2779 36.6218C86.4376 37.1809 85.7817 37.9772 85.3931 38.9099C85.0046 39.8425 84.9008 40.8697 85.0949 41.8615C85.289 42.8532 85.7723 43.7651 86.4837 44.4816C87.195 45.1982 88.1025 45.6873 89.0913 45.8871C90.0802 46.087 91.1059 45.9885 92.0389 45.6042C92.9719 45.2199 93.7702 44.5671 94.3328 43.7282C94.8954 42.8894 95.1971 41.9022 95.1998 40.8915C95.2069 40.2191 95.0804 39.5519 94.8277 38.9289C94.575 38.3059 94.2011 37.7396 93.7278 37.2628C93.2544 36.786 92.6911 36.4083 92.0707 36.1517C91.4502 35.8952 90.785 35.7649 90.1138 35.7684ZM90.0854 42.5814H90.0567C89.8353 42.5859 89.6154 42.5451 89.4103 42.4614C89.2053 42.3777 89.0195 42.2529 88.8643 42.0946C88.7091 41.9364 88.5878 41.7481 88.5079 41.5412C88.428 41.3343 88.3911 41.1132 88.3995 40.8915C88.39 40.6635 88.4279 40.4359 88.5107 40.2233C88.5935 40.0107 88.7194 39.8176 88.8806 39.6562C89.0417 39.4948 89.2345 39.3688 89.4468 39.2859C89.6591 39.2031 89.8862 39.1653 90.1138 39.1749C90.3371 39.1768 90.5578 39.2227 90.7633 39.31C90.9689 39.3973 91.1552 39.5244 91.3117 39.6839C91.4683 39.8433 91.5919 40.0322 91.6756 40.2395C91.7594 40.4469 91.8015 40.6687 91.7996 40.8924C91.7977 41.1161 91.7519 41.3372 91.6647 41.5431C91.5776 41.749 91.4508 41.9358 91.2916 42.0926C91.1324 42.2494 90.944 42.3733 90.737 42.4572C90.53 42.541 90.3086 42.5832 90.0854 42.5814ZM67.9988 4.51642C64.551 4.51642 62.0486 6.61662 62.0486 9.5103V31.2682C60.7132 31.263 59.063 31.2582 57.258 31.254C59.3205 29.6021 60.8203 27.3492 61.55 24.8066C62.2797 22.2639 62.2035 19.557 61.3317 17.0597C60.46 14.5624 58.8358 12.3979 56.6835 10.8651C54.5312 9.33235 51.9569 8.50697 49.3163 8.50298C46.6757 8.49899 44.099 9.31658 41.9421 10.8428C39.7851 12.3691 38.1544 14.5287 37.2752 17.0233C36.3959 19.518 36.3115 22.2247 37.0336 24.7695C37.7556 27.3143 39.2486 29.5717 41.3061 31.2299C38.9878 31.2276 37.4528 31.2266 37.4001 31.2265C34.2369 31.2503 31.1788 32.3665 28.7418 34.387C26.3047 36.4074 24.6379 39.2083 24.0226 42.317C23.8767 42.5702 23.799 42.857 23.7972 43.1494V44.091C23.7854 44.2787 23.761 44.463 23.7569 44.6526C23.7547 44.841 23.7682 45.0293 23.7972 45.2155V67.4204C23.8501 68.8697 24.4497 70.2449 25.475 71.2685C26.5004 72.2922 27.8751 72.888 29.3218 72.9359L29.2922 76.3323C29.2814 77.1717 29.5834 77.9849 30.1391 78.6131C30.6949 79.2413 31.4645 79.6392 32.2975 79.7292V102.194C32.2995 104 33.0169 105.731 34.2919 107.007C35.567 108.283 37.2955 109 39.0977 109C40.9 109 42.6285 108.283 43.9036 107.007C45.1786 105.731 45.896 104 45.898 102.194V79.7685H49.2981V102.194C49.3001 104 50.0175 105.731 51.2925 107.007C52.5676 108.283 54.2961 109 56.0983 109C57.9006 109 59.6291 108.283 60.9042 107.007C62.1792 105.731 62.8966 104 62.8986 102.194V79.6481C63.6271 79.4611 64.2729 79.0368 64.7345 78.442C65.1961 77.8472 65.4473 77.1155 65.4487 76.3621V50.3485C65.4498 49.9566 65.5404 49.5702 65.7135 49.2188C65.8866 48.8674 66.1376 48.5603 66.4473 48.3209L70.2877 45.3711C71.4232 44.4935 72.3435 43.3675 72.9781 42.0789C73.6126 40.7904 73.9447 39.3736 73.949 37.9368V9.51026C73.949 6.61662 71.4466 4.51642 67.9988 4.51642ZM39.9478 21.291C39.9477 19.4381 40.496 17.6269 41.5234 16.0862C42.5508 14.5456 44.0111 13.3448 45.7197 12.6357C47.4282 11.9266 49.3083 11.7411 51.1221 12.1025C52.9359 12.4639 54.602 13.3561 55.9097 14.6663C57.2174 15.9764 58.1079 17.6456 58.4687 19.4629C58.8296 21.2801 58.6444 23.1638 57.9367 24.8756C57.229 26.5874 56.0306 28.0505 54.4929 29.0799C52.9552 30.1093 51.1474 30.6587 49.2981 30.6587C48.0702 30.6588 46.8544 30.4165 45.7199 29.9457C44.5855 29.475 43.5547 28.7849 42.6865 27.9151C41.8182 27.0452 41.1295 26.0125 40.6596 24.8759C40.1897 23.7394 39.9478 22.5212 39.9478 21.291ZM42.4979 102.194C42.4979 103.098 42.1396 103.964 41.502 104.603C40.8643 105.242 39.9995 105.601 39.0977 105.601C38.196 105.601 37.3311 105.242 36.6935 104.603C36.0558 103.964 35.6976 103.098 35.6976 102.194V79.7685H42.4979V102.194ZM59.4985 102.194C59.4985 103.098 59.1402 103.964 58.5026 104.603C57.865 105.242 57.0001 105.601 56.0984 105.601C55.1966 105.601 54.3317 105.242 53.6941 104.603C53.0565 103.964 52.6982 103.098 52.6982 102.194V79.7685H59.4985V102.194ZM70.5489 37.9368C70.5489 38.8516 70.3387 39.7541 69.9347 40.5745C69.5307 41.3949 68.9436 42.1111 68.219 42.6677L64.3785 45.6175C63.6539 46.1741 63.0668 46.8903 62.6628 47.7107C62.2587 48.5311 62.0486 49.4336 62.0486 50.3485V76.3621H32.6922L32.7284 72.2036C33.6093 71.7505 34.3508 71.0662 34.8737 70.2237C35.3967 69.3813 35.6815 68.4124 35.6976 67.4204V52.5172C35.6976 52.0654 35.5185 51.6322 35.1997 51.3128C34.8809 50.9933 34.4484 50.8139 33.9976 50.8139C33.5467 50.8139 33.1143 50.9933 32.7954 51.3128C32.4766 51.6322 32.2975 52.0654 32.2975 52.5172V67.4204C32.2355 68.0393 31.9337 68.609 31.4568 69.0072C30.9799 69.4053 30.3661 69.6 29.7474 69.5495C29.1287 69.6 28.5149 69.4053 28.038 69.0072C27.5611 68.609 27.2593 68.0393 27.1973 67.4204V45.0226L27.443 45.2933L27.1973 44.8524V44.1524C27.4029 41.5756 28.564 39.1694 30.4519 37.4075C32.3398 35.6457 34.8177 34.6558 37.3977 34.6329C37.3977 34.6329 55.9559 34.646 62.8922 34.6783L62.9042 34.6783C63.2388 34.6782 63.5701 34.6119 63.8791 34.4834C64.1881 34.3549 64.4688 34.1666 64.7051 33.9293C64.9414 33.6921 65.1287 33.4104 65.2563 33.1006C65.3839 32.7907 65.4493 32.4587 65.4487 32.1235V9.51026C65.4487 8.45204 66.7237 7.92285 67.9988 7.92285C69.2738 7.92285 70.5489 8.45199 70.5489 9.51026V37.9368ZM25.0118 28.2501L23.5159 21.17L28.4843 18.7397C30.0315 17.9584 31.231 16.6255 31.847 15.003C32.463 13.3805 32.4508 11.5859 31.8129 9.97193L29.5925 4.30607C29.1137 3.04356 28.264 1.9562 27.1556 1.18752C26.0472 0.418848 24.7322 0.00499343 23.3842 0.000587539C22.5887 0.000549209 21.7999 0.146178 21.0566 0.430296L4.361 6.78796C3.52549 7.10671 2.76199 7.58952 2.11533 8.20804C1.46868 8.82655 0.951903 9.5683 0.595367 10.3897C0.222943 11.239 0.0211714 12.1535 0.00157849 13.0809C-0.0180144 14.0083 0.144955 14.9305 0.481178 15.7948L3.29659 22.9788C3.77566 24.2415 4.62564 25.329 5.73435 26.0977C6.84305 26.8664 8.15835 27.2802 9.50663 27.2845C10.5042 27.2854 11.4886 27.0564 12.3837 26.6153L12.7407 26.4407L19.6324 31.6708C20.1849 32.0902 20.8522 32.3303 21.5448 32.359C22.2374 32.3878 22.9222 32.2037 23.5075 31.8316C24.0927 31.4594 24.5505 30.9169 24.8193 30.2768C25.0882 29.6366 25.1554 28.9295 25.0118 28.2501ZM19.6401 19.275L21.6854 28.9555L13.1275 22.4608L10.8919 23.5543C10.4608 23.7667 9.98697 23.8775 9.5066 23.878C8.84245 23.8699 8.19628 23.6607 7.65287 23.2781C7.10946 22.8954 6.69419 22.3571 6.46153 21.7338L3.64611 14.5499C3.29709 13.6872 3.30348 12.7211 3.66389 11.8631C4.02429 11.0051 4.70935 10.3252 5.56906 9.97215L22.2646 3.61449C22.6221 3.47768 23.0015 3.40738 23.3842 3.40705C24.048 3.41566 24.6938 3.62496 25.2368 4.00753C25.7799 4.39011 26.1949 4.92811 26.4276 5.55106L28.648 11.2169C28.9761 12.0336 28.9882 12.9435 28.682 13.7687C28.3759 14.5939 27.7734 15.2749 26.9925 15.6786L19.6401 19.275Z" fill="#F47C35"/>
</svg>
