<svg width="113" height="113" viewBox="0 0 113 113" fill="none" xmlns="http://www.w3.org/2000/svg">
<path d="M15.8906 49.4375V75.0391C15.8906 86.7406 25.3766 96.2266 37.0781 96.2266H62.6797" stroke="#1F1F1F" stroke-width="7" stroke-linecap="round"/>
<path d="M75.0391 15.8906H50.3203C38.6188 15.8906 29.1328 25.3766 29.1328 37.0781V61.7969C29.1328 73.4984 38.6188 82.9844 50.3203 82.9844H75.0391C86.7406 82.9844 96.2266 73.4984 96.2266 61.7969V37.0781C96.2266 25.3766 86.7406 15.8906 75.0391 15.8906Z" stroke="#1F1F1F" stroke-width="7"/>
<path d="M62.2383 50.7617V50.1325C62.2383 48.3344 63.1899 46.6708 64.7396 45.7591C67.8391 43.9359 70.1098 40.5313 69.1948 37.0538C68.4234 34.1218 66.5847 31.7812 62.2383 31.7812C55.1758 31.7812 54.7344 37.0781 54.7344 40.168" stroke="#1F1F1F" stroke-width="7" stroke-linecap="round"/>
<path d="M62.6797 67.0938C65.1175 67.0938 67.0938 65.1175 67.0938 62.6797C67.0938 60.2419 65.1175 58.2656 62.6797 58.2656C60.2419 58.2656 58.2656 60.2419 58.2656 62.6797C58.2656 65.1175 60.2419 67.0938 62.6797 67.0938Z" fill="#1F1F1F"/>
</svg>
