<svg width="92" height="92" viewBox="0 0 92 92" fill="none" xmlns="http://www.w3.org/2000/svg">
<path d="M78.0022 46.1545C78.9958 45.2219 79.9512 44.2829 80.8684 43.3376C82.4429 44.0293 84.2039 44.1685 85.8671 43.7328C87.5302 43.297 88.9983 42.3117 90.0343 40.936C91.0702 39.5604 91.6136 37.8746 91.5765 36.1511C91.5394 34.4275 90.9241 32.7669 89.8299 31.4373C96.1355 18.9429 88.4732 8.84396 61.1682 18.0231C53.6398 -5.91164 38.2389 -6.04578 30.5958 17.8506C-0.798262 7.44505 -10.333 22.8905 14.316 46.1737C13.3224 47.1127 12.4052 48.09 11.488 48.9715C3.65385 44.4107 -4.00837 54.9121 2.37363 61.0826C-0.588075 67.0807 0.233558 70.9133 1.51378 72.9829C6.27161 80.9547 21.9591 77.3712 30.7678 74.4584C38.4109 97.9141 53.506 97.8374 61.0536 74.286C93.1355 85.1323 102.785 69.5527 78.0022 46.1545ZM84.0976 40.2523C83.3417 40.2523 82.6029 40.0275 81.9744 39.6064C81.346 39.1853 80.8562 38.5867 80.5669 37.8864C80.2777 37.186 80.202 36.4154 80.3494 35.672C80.4969 34.9285 80.8609 34.2456 81.3953 33.7096C81.9298 33.1736 82.6107 32.8086 83.352 32.6607C84.0933 32.5128 84.8617 32.5887 85.56 32.8788C86.2583 33.1689 86.8552 33.6601 87.2751 34.2904C87.695 34.9207 87.9191 35.6617 87.9191 36.4197C87.9191 37.4362 87.5165 38.411 86.7998 39.1297C86.0831 39.8485 85.1111 40.2523 84.0976 40.2523ZM86.6771 29.2335C85.1487 28.6975 83.4901 28.6621 81.9403 29.1325C80.3906 29.6029 79.0298 30.5547 78.0542 31.8507C77.0787 33.1467 76.5387 34.7199 76.5122 36.3436C76.4856 37.9672 76.9739 39.5573 77.9066 40.8847C77.0468 41.7853 76.1296 42.6668 75.1742 43.5675C58.6269 29.0994 67.5311 42.571 62.2001 21.7407C76.5691 16.8541 93.2693 15.5319 86.6771 29.2335ZM46.1686 63.7271C40.8844 61.0096 35.7786 57.9565 30.8824 54.5863C30.4334 48.9933 30.4334 43.3732 30.8824 37.7803C35.7811 34.4197 40.8867 31.3731 46.1686 28.6586C51.2215 31.2749 56.1095 34.1996 60.8052 37.4162C61.2831 43.2639 61.2831 49.141 60.8052 54.9887C56.1043 58.1856 51.2167 61.0972 46.1686 63.7079V63.7271ZM60.2511 59.8945C59.8417 63.0439 59.2483 66.1664 58.474 69.2461C55.8372 68.2304 53.1239 67.0615 50.3723 65.7584C54.3277 63.6505 56.9263 62.0982 60.2511 59.9328V59.8945ZM41.9458 65.7584C39.0223 67.1381 36.2135 68.3837 33.3282 69.4377C32.4916 66.1642 31.8535 62.8429 31.4174 59.4921C35.2772 62.0216 38.0861 63.7079 41.9458 65.7967V65.7584ZM26.9271 51.7502C24.4813 49.9297 22.1693 48.0708 20.0101 46.212C22.1693 44.2957 24.4622 42.4944 26.908 40.693C26.7743 44.4299 26.7743 47.9175 26.9271 51.7502ZM31.3983 32.8937C31.8143 29.5143 32.4526 26.1662 33.3091 22.8714C36.1371 23.9445 39.0414 25.1901 41.984 26.589C37.7803 28.7544 34.8759 30.6707 31.3983 32.8553V32.8937ZM50.5061 26.589C53.2831 25.3115 55.9964 24.1489 58.646 23.1013C59.4153 26.1875 60.0022 29.3165 60.4039 32.4721C56.697 30.0959 53.7735 28.3903 50.4106 26.5507L50.5061 26.589ZM64.8369 40.2523C67.4929 42.1686 69.996 44.1807 72.289 46.1929C69.9769 48.205 67.4738 50.2171 64.8178 52.1718C65.0438 48.202 65.0502 44.2228 64.8369 40.2523ZM57.5187 19.3453C53.85 20.7443 50.0284 22.4114 46.1686 24.3469C42.3029 22.4225 38.3426 20.6956 34.3027 19.1729C40.8376 -1.56161 51.2513 -0.795084 57.5187 19.3453ZM29.6213 21.5299C24.0801 43.1651 33.0416 29.6743 17.2204 43.5867C-4.84911 23.0055 2.23987 12.4275 29.6213 21.5299ZM7.66648 51.7502C8.42231 51.7502 9.16117 51.9749 9.78962 52.3961C10.4181 52.8172 10.9079 53.4158 11.1971 54.1161C11.4864 54.8164 11.5621 55.587 11.4146 56.3305C11.2672 57.0739 10.9032 57.7569 10.3687 58.2929C9.83427 58.8289 9.15334 59.1939 8.41203 59.3418C7.67072 59.4896 6.90233 59.4137 6.20404 59.1237C5.50574 58.8336 4.90889 58.3423 4.48898 57.7121C4.06906 57.0818 3.84493 56.3408 3.84493 55.5828C3.84493 54.5663 4.24755 53.5915 4.96423 52.8727C5.68091 52.154 6.65294 51.7502 7.66648 51.7502ZM5.7557 62.9606C7.2018 63.3086 8.71771 63.226 10.1177 62.7228C11.5176 62.2196 12.7408 61.3178 13.6373 60.1278C14.5338 58.9378 15.0647 57.5114 15.1649 56.0233C15.265 54.5353 14.9302 53.0502 14.2013 51.7502C15.1376 50.7728 16.1121 49.8339 17.1439 48.8374C33.118 62.8073 24.0609 49.259 29.6977 70.8366C15.3096 75.5507 -0.951123 76.6622 5.7557 62.9606ZM34.4174 73.1745C38.4263 71.6524 42.3549 69.9255 46.1877 68.0005C50.0093 69.9168 53.8309 71.584 57.4422 72.9829C51.1367 92.8167 40.8567 93.3341 34.4174 73.1745ZM62.1236 70.5875C67.5311 49.7189 58.5696 63.248 75.1742 48.7416C96.9571 69.1886 90.7089 80.3224 62.1045 70.5875H62.1236Z" fill="#356DA4"/>
</svg>
