<svg width="107" height="106" viewBox="0 0 107 106" fill="none" xmlns="http://www.w3.org/2000/svg">
<path d="M90.7199 53.0566C91.8756 51.9846 92.9867 50.9052 94.0534 49.8184C95.8846 50.6136 97.9328 50.7736 99.8671 50.2727C101.801 49.7718 103.509 48.6392 104.714 47.0578C105.919 45.4763 106.551 43.5385 106.507 41.5572C106.464 39.5759 105.749 37.6669 104.476 36.1385C111.81 21.7757 102.898 10.1665 71.1413 20.7183C62.3854 -6.79568 44.4735 -6.94988 35.5843 20.5201C-0.928414 8.55841 -12.0178 26.3136 16.6501 53.0787C15.4945 54.1581 14.4278 55.2815 13.3611 56.2949C4.24959 51.052 -4.6619 63.1238 2.76063 70.2171C-0.683957 77.1121 0.271639 81.5179 1.76059 83.897C7.29416 93.061 25.5394 88.9416 35.7843 85.5932C44.6735 112.556 62.2298 112.468 71.008 85.3949C108.321 97.8633 119.543 79.9538 90.7199 53.0566ZM97.8091 46.2718C96.9301 46.2718 96.0707 46.0134 95.3398 45.5293C94.6089 45.0451 94.0392 44.3571 93.7028 43.552C93.3664 42.747 93.2784 41.8611 93.4499 41.0065C93.6214 40.1518 94.0447 39.3668 94.6663 38.7506C95.2879 38.1345 96.0799 37.7149 96.942 37.5449C97.8042 37.3749 98.6979 37.4621 99.51 37.7956C100.322 38.1291 101.016 38.6938 101.505 39.4183C101.993 40.1428 102.254 40.9946 102.254 41.866C102.254 43.0345 101.785 44.1551 100.952 44.9813C100.118 45.8076 98.9879 46.2718 97.8091 46.2718ZM100.809 33.6052C99.0317 32.989 97.1026 32.9484 95.3002 33.4891C93.4977 34.0298 91.9151 35.1239 90.7805 36.6137C89.6458 38.1036 89.0178 39.9121 88.987 41.7785C88.9561 43.6449 89.524 45.4729 90.6088 46.9987C89.6088 48.0341 88.5421 49.0474 87.4309 50.0827C68.1857 33.451 78.5416 48.9372 72.3414 24.9919C89.0532 19.3746 108.476 17.8546 100.809 33.6052ZM53.6961 73.2571C47.5504 70.1332 41.6121 66.6235 35.9176 62.7493C35.3954 56.32 35.3954 49.8594 35.9176 43.43C41.6149 39.5669 47.553 36.0647 53.6961 32.9443C59.5728 35.9518 65.2578 39.3139 70.7191 43.0115C71.2749 49.7337 71.2749 56.4897 70.7191 63.2119C65.2517 66.8868 59.5672 70.2339 53.6961 73.235V73.2571ZM70.0746 68.8513C69.5984 72.4717 68.9083 76.0612 68.0079 79.6014C64.9411 78.4338 61.7854 77.0901 58.5852 75.5921C63.1854 73.169 66.2078 71.3846 70.0746 68.8954V68.8513ZM48.7848 75.5921C45.3847 77.1782 42.1179 78.6101 38.7622 79.8217C37.7891 76.0587 37.047 72.2407 36.5399 68.3887C41.0289 71.2965 44.2957 73.235 48.7848 75.6362V75.5921ZM31.3174 59.4891C28.4728 57.3963 25.7838 55.2595 23.2726 53.1227C25.7838 50.9198 28.4506 48.8491 31.2952 46.7784C31.1396 51.074 31.1396 55.0833 31.3174 59.4891ZM36.5176 37.8127C37.0014 33.928 37.7438 30.0792 38.7399 26.2916C42.029 27.5252 45.4069 28.9571 48.8293 30.5652C43.9402 33.0545 40.5622 35.2573 36.5176 37.7686V37.8127ZM58.7408 30.5652C61.9706 29.0966 65.1263 27.7602 68.2079 26.556C69.1025 30.1037 69.7852 33.7006 70.2524 37.3281C65.9411 34.5965 62.541 32.6359 58.6297 30.5212L58.7408 30.5652ZM75.4082 46.2718C78.4972 48.4746 81.4084 50.7877 84.0752 53.1007C81.3862 55.4137 78.475 57.7267 75.386 59.9737C75.6488 55.4103 75.6562 50.836 75.4082 46.2718ZM66.8967 22.2383C62.6299 23.8464 58.1852 25.7629 53.6961 27.9878C49.2001 25.7757 44.5941 23.7905 39.8956 22.0401C47.4959 -1.79514 59.6075 -0.913984 66.8967 22.2383ZM34.4509 24.7496C28.0062 49.6201 38.4288 34.1118 20.028 50.1048C-5.63973 26.4458 2.60507 14.2859 34.4509 24.7496ZM8.91645 59.4891C9.79552 59.4891 10.6548 59.7474 11.3858 60.2316C12.1167 60.7157 12.6864 61.4038 13.0228 62.2088C13.3592 63.0139 13.4472 63.8997 13.2757 64.7543C13.1042 65.609 12.6809 66.394 12.0593 67.0102C11.4377 67.6263 10.6457 68.0459 9.78356 68.2159C8.92138 68.3859 8.02772 68.2987 7.21556 67.9652C6.40341 67.6318 5.70926 67.0671 5.22087 66.3425C4.73249 65.618 4.47182 64.7662 4.47182 63.8948C4.47182 62.7263 4.94009 61.6057 5.77362 60.7795C6.60715 59.9532 7.73766 59.4891 8.91645 59.4891ZM6.69413 72.3759C8.376 72.776 10.1391 72.681 11.7673 72.1026C13.3955 71.5241 14.8181 70.4874 15.8608 69.1195C16.9034 67.7516 17.5209 66.1118 17.6374 64.4012C17.7539 62.6906 17.3645 60.9835 16.5168 59.4891C17.6057 58.3656 18.7391 57.2862 19.9391 56.1407C38.5177 72.1997 27.9839 56.6253 34.5398 81.4298C17.8057 86.8489 -1.1062 88.1265 6.69413 72.3759ZM40.0289 84.1173C44.6915 82.3676 49.2606 80.3824 53.7184 78.1695C58.163 80.3724 62.6076 82.2889 66.8078 83.897C59.4742 106.697 47.5181 107.292 40.0289 84.1173ZM72.2525 81.1434C78.5416 57.154 68.119 72.7064 87.4309 56.0305C112.765 79.5353 105.498 92.334 72.2303 81.1434H72.2525Z" fill="#F8F7F4"/>
</svg>
