<svg width="93" height="86" viewBox="0 0 93 86" fill="none" xmlns="http://www.w3.org/2000/svg">
<path d="M83.0292 14.9898H78.4634V10.0008C78.4634 4.48635 73.9907 0 68.493 0H9.9704C4.4727 0 0 4.48635 0 10.0008V49.9068C0 55.4213 4.4727 59.9076 9.9704 59.9076H14.9604V69.5524C14.9605 69.9389 15.1136 70.3095 15.386 70.5829C15.6584 70.8562 16.0279 71.0098 16.4132 71.01C16.6106 71.0101 16.806 70.9697 16.9874 70.8915C17.1689 70.8133 17.3325 70.6988 17.4683 70.5551L27.5284 59.9078H32.1188V64.8968C32.1188 70.4113 36.5915 74.8977 42.0892 74.8977H65.4716L75.5317 85.5449C75.7316 85.7566 75.9903 85.9033 76.2743 85.966C76.5582 86.0286 76.8544 86.0044 77.1245 85.8964C77.3946 85.7884 77.6261 85.6016 77.7892 85.3602C77.9524 85.1188 78.0396 84.8339 78.0396 84.5423V74.8975H83.0296C88.5273 74.8975 93 70.4111 93 64.8966V24.9907C92.9996 19.4762 88.5269 14.9898 83.0292 14.9898ZM26.9032 56.9925C26.7058 56.9925 26.5105 57.0329 26.3292 57.1111C26.1478 57.1893 25.9843 57.3038 25.8484 57.4475L17.8665 65.8954V58.4501C17.8665 58.0635 17.7134 57.6928 17.4409 57.4194C17.1683 57.1461 16.7987 56.9925 16.4133 56.9925H9.9704C6.07513 56.9925 2.90624 53.8138 2.90624 49.9068V10.0008C2.90624 6.09385 6.07513 2.91511 9.9704 2.91511H68.4931C72.3882 2.91511 75.5573 6.09367 75.5573 10.0008V49.9068C75.5573 53.8138 72.3884 56.9925 68.4931 56.9925H26.9032ZM90.0934 64.8966C90.0934 68.8036 86.9245 71.9824 83.0292 71.9824H76.5861C76.2007 71.9824 75.8311 72.1359 75.5586 72.4093C75.2861 72.6826 75.133 73.0534 75.133 73.4399V80.8853L67.151 72.4373C67.0152 72.2936 66.8517 72.1791 66.6703 72.1009C66.489 72.0227 66.2936 71.9824 66.0962 71.9824H42.0889C38.1938 71.9824 35.0247 68.8038 35.0247 64.8966V59.9076H68.493C73.9907 59.9076 78.4634 55.4213 78.4634 49.9068V17.905H83.0292C86.9243 17.905 90.0934 21.0835 90.0934 24.9907V64.8966ZM65.7228 17.9368C65.7228 18.3234 65.5697 18.6941 65.2972 18.9675C65.0246 19.2408 64.655 19.3944 64.2696 19.3944H14.1939C13.8085 19.3944 13.4389 19.2408 13.1664 18.9675C12.8939 18.6941 12.7408 18.3234 12.7408 17.9368C12.7408 17.5503 12.8939 17.1795 13.1664 16.9062C13.4389 16.6328 13.8085 16.4793 14.1939 16.4793H64.2696C65.0721 16.4793 65.7228 17.1321 65.7228 17.9368ZM65.7228 29.9538C65.7228 30.3404 65.5697 30.7111 65.2972 30.9845C65.0246 31.2578 64.655 31.4114 64.2696 31.4114H35.3962C35.0108 31.4114 34.6412 31.2578 34.3687 30.9845C34.0961 30.7111 33.943 30.3404 33.943 29.9538C33.943 29.5672 34.0961 29.1965 34.3687 28.9232C34.6412 28.6498 35.0108 28.4963 35.3962 28.4963H64.2696C64.655 28.4963 65.0246 28.6498 65.2972 28.9232C65.5697 29.1965 65.7228 29.5672 65.7228 29.9538ZM29.4371 29.9538C29.4371 30.3404 29.284 30.7111 29.0115 30.9845C28.739 31.2578 28.3694 31.4114 27.984 31.4114H14.1939C13.8085 31.4114 13.4389 31.2578 13.1664 30.9845C12.8939 30.7111 12.7408 30.3404 12.7408 29.9538C12.7408 29.5672 12.8939 29.1965 13.1664 28.9232C13.4389 28.6498 13.8085 28.4963 14.1939 28.4963H27.9842C28.3695 28.4963 28.7391 28.6499 29.0116 28.9232C29.284 29.1966 29.4371 29.5673 29.4371 29.9538ZM29.4371 41.9706C29.4371 42.3572 29.284 42.7279 29.0115 43.0013C28.739 43.2746 28.3694 43.4282 27.984 43.4282H14.1939C13.8085 43.4282 13.4389 43.2746 13.1664 43.0013C12.8939 42.7279 12.7408 42.3572 12.7408 41.9706C12.7408 41.584 12.8939 41.2133 13.1664 40.94C13.4389 40.6666 13.8085 40.5131 14.1939 40.5131H27.9842C28.3695 40.5131 28.7391 40.6667 29.0116 40.94C29.284 41.2134 29.4371 41.5841 29.4371 41.9706ZM47.7092 41.9706C47.7092 42.3572 47.5561 42.7279 47.2836 43.0013C47.0111 43.2746 46.6414 43.4282 46.2561 43.4282H35.3962C35.0108 43.4282 34.6412 43.2746 34.3687 43.0013C34.0961 42.7279 33.943 42.3572 33.943 41.9706C33.943 41.584 34.0961 41.2133 34.3687 40.94C34.6412 40.6666 35.0108 40.5131 35.3962 40.5131H46.2561C46.6414 40.5131 47.0111 40.6666 47.2836 40.94C47.5561 41.2133 47.7092 41.584 47.7092 41.9706ZM65.7228 41.9706C65.7228 42.3572 65.5697 42.7279 65.2972 43.0013C65.0246 43.2746 64.655 43.4282 64.2696 43.4282H52.8926C52.5072 43.4282 52.1376 43.2746 51.8651 43.0013C51.5926 42.7279 51.4395 42.3572 51.4395 41.9706C51.4395 41.584 51.5926 41.2133 51.8651 40.94C52.1376 40.6666 52.5072 40.5131 52.8926 40.5131H64.2696C64.655 40.5131 65.0246 40.6666 65.2972 40.94C65.5697 41.2133 65.7228 41.584 65.7228 41.9706Z" fill="url(#paint0_linear_1126_2764)"/>
<defs>
<linearGradient id="paint0_linear_1126_2764" x1="14.7021" y1="69.8972" x2="78.6959" y2="6.09807" gradientUnits="userSpaceOnUse">
<stop stop-color="#FCC60E"/>
<stop offset="1" stop-color="#E92E29"/>
</linearGradient>
</defs>
</svg>
